<svg width="200mm" height="200mm" viewBox="0 0 200 200" xmlns="http://www.w3.org/2000/svg"><path d="M31.787 103.442c2.756-.117 10.81 6.84 22.959 18.033 9.436 8.695 23.456 32.68 26.29 32.799 2.906.3 13.205-39.723 42.952-87.92C143.968 33.982 166.616.296 171.327.263c3.34-.033 28.46 72.81 28.508 79.661-.024 5.103-23.977 12.177-48.24 35.68-38.87 37.656-63.03 84.273-65.793 84.191-2.105-.13-25.347-23.596-50.782-40.014C22.443 151.662.322 147.162.278 144.411c.086-2.863 9.21-9.99 18.343-21.776 4.884-6.302 10.827-19.026 13.166-19.193z"/></svg>