<svg width="200mm" height="200mm" viewBox="0 0 200 200" xmlns="http://www.w3.org/2000/svg"><g transform="translate(0 -97)"><path d="M57.835 109.9a47.266 47.266 0 0 0-4.273.204C-6.629 115.78 1.358 220.274.217 221.274c0 0 23.107 51.078 67.608 62.428 44.502 11.351 131.79-65.099 131.79-65.099s-81.888-108.88-141.78-108.7zm14.007 39.972a41.697 49.327 0 0 1 41.697 49.326 41.697 49.327 0 0 1-41.697 49.327 41.697 49.327 0 0 1-41.697-49.327 41.697 49.327 0 0 1 41.697-49.326z" stroke="#000" stroke-width=".305"/><circle cx="71.185" cy="200.81" r="20.847"/></g></svg>