<svg width="200mm" height="200mm" viewBox="0 0 200 200" xmlns="http://www.w3.org/2000/svg"><path d="M98.875.006a10.433 10.433 0 0 0-6.174 2.287L13.142 66.07a10.433 10.433 0 0 0-3.908 8.139l-.004 115.36A10.433 10.433 0 0 0 19.662 200h160.67a10.433 10.433 0 0 0 10.434-10.432V74.209a10.433 10.433 0 0 0-3.984-8.202L105.677 2.23A10.433 10.433 0 0 0 98.876.004zm.414 23.746L169.9 79.277v99.86H30.1l.004-99.921z" color="#000" style="font-feature-settings:normal;font-variant-alternates:normal;font-variant-caps:normal;font-variant-ligatures:normal;font-variant-numeric:normal;font-variant-position:normal;isolation:auto;mix-blend-mode:normal;shape-padding:0;text-decoration-color:#000;text-decoration-line:none;text-decoration-style:solid;text-indent:0;text-orientation:mixed;text-transform:none"/></svg>