<svg viewBox="0 0 200 200" xmlns="http://www.w3.org/2000/svg"><path d="M100 15.944a4.3 4.3 0 0 0-1.839.732c-.146.104-.322.157-.457.28L29.581 72.275h.007a3.759 3.759 0 0 0-1.243 2.761v94.333c0 2.151 1.894 3.895 4.23 3.895H72.76v-55.318c0-7.094 5.888-12.804 13.2-12.804h28.08c7.312 0 13.2 5.71 13.2 12.804v55.32h40.184c2.336 0 4.231-1.746 4.231-3.896V75.034a3.759 3.759 0 0 0-1.242-2.761h.006l-68.123-55.318c-.136-.123-.311-.176-.46-.28a4.3 4.3 0 0 0-1.837-.732zm-12.128 96.865c-3.516 0-6.346 2.962-6.346 6.642v53.815h36.952V119.45c0-3.68-2.832-6.642-6.347-6.642h-12.13z" opacity=".42"/></svg>